<svg width="16" height="16" viewBox="0 0 16 16" fill="none" xmlns="http://www.w3.org/2000/svg">
<path fill-rule="evenodd" clip-rule="evenodd" d="M8 14.5455C4.38505 14.5455 1.45455 11.615 1.45455 8C1.45455 4.38505 4.38505 1.45455 8 1.45455C11.615 1.45455 14.5455 4.38505 14.5455 8C14.5455 11.615 11.615 14.5455 8 14.5455ZM0 8C0 12.4183 3.58172 16 8 16C12.4183 16 16 12.4183 16 8C16 3.58172 12.4183 0 8 0C3.58172 0 0 3.58172 0 8ZM8 11.6364C8.40166 11.6364 8.72727 11.3108 8.72727 10.9091V8C8.72727 7.59834 8.40166 7.27273 8 7.27273C7.59834 7.27273 7.27273 7.59834 7.27273 8V10.9091C7.27273 11.3108 7.59834 11.6364 8 11.6364ZM7.27273 5.09091C7.27273 5.49257 7.59834 5.81818 8 5.81818H8.00727C8.40893 5.81818 8.73455 5.49257 8.73455 5.09091C8.73455 4.68925 8.40893 4.36364 8.00727 4.36364H8C7.59834 4.36364 7.27273 4.68925 7.27273 5.09091Z" fill="#707374"/>
</svg>
