<svg width="24" height="25" viewBox="0 0 24 25" fill="none" xmlns="http://www.w3.org/2000/svg">
<rect x="11.3333" y="4.5" width="1.33333" height="3.33333" rx="0.666667" fill="#9FFFE6"/>
<rect width="1.33333" height="3.33333" rx="0.666667" transform="matrix(1 0 0 -1 11.3333 20.5)" fill="#9FFFE6"/>
<rect x="7.33325" y="11.833" width="1.33333" height="3.33333" rx="0.666667" transform="rotate(90 7.33325 11.833)" fill="#9FFFE6"/>
<rect width="1.33333" height="3.33333" rx="0.666667" transform="matrix(4.37114e-08 1 1 -4.37114e-08 16.6653 11.833)" fill="#9FFFE6"/>
<rect x="8.21997" y="9.5" width="1.33333" height="3.33333" rx="0.666667" transform="rotate(120 8.21997 9.5)" fill="#9FFFE6"/>
<rect width="1.33333" height="3.33333" rx="0.666667" transform="matrix(-0.5 -0.866025 -0.866025 0.5 8.30786 15.6543)" fill="#9FFFE6"/>
<rect width="1.33333" height="3.33333" rx="0.666667" transform="matrix(0.5 0.866025 0.866025 -0.5 15.9993 9.4082)" fill="#9FFFE6"/>
<rect x="15.9993" y="15.6543" width="1.33333" height="3.33333" rx="0.666667" transform="rotate(-60 15.9993 15.6543)" fill="#9FFFE6"/>
<rect x="10.1536" y="8.05371" width="1.33333" height="3.33333" rx="0.666667" transform="rotate(150 10.1536 8.05371)" fill="#9FFFE6"/>
<rect width="1.33333" height="3.33333" rx="0.666667" transform="matrix(-0.866026 -0.5 -0.5 0.866026 10.1536 17.167)" fill="#9FFFE6"/>
<rect width="1.33333" height="3.33333" rx="0.666667" transform="matrix(0.866026 0.5 0.5 -0.866026 13.9993 8.05371)" fill="#9FFFE6"/>
<rect x="13.9993" y="17.167" width="1.33333" height="3.33333" rx="0.666667" transform="rotate(-30 13.9993 17.167)" fill="#9FFFE6"/>
</svg>
