<svg width="54" height="32" viewBox="0 0 54 32" fill="none" xmlns="http://www.w3.org/2000/svg">
<rect width="54" height="32" rx="16" fill="#303033"/>
<path d="M18.9998 8L33.8826 21.9565C33.8826 21.9565 34.1737 22.3535 33.8032 22.7417C33.4415 23.1299 32.9651 22.7946 32.9651 22.7946L18.9998 8ZM23.4196 9.40271L34.9765 20.0333C34.9765 20.0333 35.2588 20.4215 34.8971 20.792C34.5266 21.2066 34.0502 20.8714 34.0502 20.8714L23.4196 9.40271ZM20.3142 12.411L31.8712 23.024C31.8712 23.024 32.1535 23.4122 31.7918 23.8003C31.4212 24.1973 30.9448 23.8797 30.9448 23.8797L20.3142 12.411ZM27.1602 10.6113L35.2324 18.0307C35.2324 18.0307 35.4265 18.3042 35.1706 18.5865C34.9236 18.8511 34.5884 18.613 34.5884 18.613L27.1602 10.6113ZM21.3376 15.8605L29.4098 23.2886C29.4098 23.2886 29.6039 23.5621 29.3569 23.8356C29.101 24.1091 28.7658 23.8797 28.7658 23.8797L21.3376 15.8605ZM30.9801 12.3405L34.6589 15.7105C34.6589 15.7105 34.756 15.834 34.6148 15.9663C34.509 16.0898 34.3413 15.984 34.3413 15.984L30.9801 12.3405ZM23.1991 19.5569L26.8867 22.9181C26.8867 22.9181 26.9837 23.0505 26.8514 23.174C26.7279 23.3063 26.5603 23.1916 26.5603 23.1916L23.1991 19.5569Z" fill="white"/>
</svg>
