<svg width="94" height="44" viewBox="0 0 94 44" fill="none" xmlns="http://www.w3.org/2000/svg">
<mask id="path-1-inside-1_183_1474" fill="white">
<path fill-rule="evenodd" clip-rule="evenodd" d="M37.3479 6.78028V6.78028C37.2398 6.68689 37.13 6.59499 37.0301 6.49286C33.1099 2.48643 27.6425 0 21.5944 0C9.66813 0 5.21308e-07 9.66812 0 21.5944C-5.21322e-07 33.5206 9.66812 43.1887 21.5944 43.1887C27.7506 43.1887 33.3052 40.6126 37.2388 36.4795C37.4775 36.2287 37.7568 36.0187 38.0081 35.7804V35.7804L43.0318 31.0165C44.6742 29.4592 47.2294 29.3998 48.9423 30.8792L55.7045 36.7197V36.7197C55.8126 36.8131 55.9223 36.905 56.0222 37.0071C59.9425 41.0135 65.4099 43.5 71.458 43.5C83.3843 43.5 93.0524 33.8319 93.0524 21.9056C93.0524 9.97941 83.3843 0.311285 71.458 0.311286C65.3018 0.311286 59.7472 2.8874 55.8136 7.02044C55.5748 7.27126 55.2955 7.48131 55.0443 7.71957V7.71957L50.0205 12.4834C48.3782 14.0408 45.823 14.1002 44.1101 12.6208L37.3479 6.78028Z"/>
</mask>
<path d="M37.6747 6.40188L37.2963 6.07506L36.6427 6.83186L37.0211 7.15868L37.6747 6.40188ZM0 21.5944L0.5 21.5944L0 21.5944ZM37.664 35.4176L37.3012 35.7616L37.9893 36.4873L38.3521 36.1432L37.664 35.4176ZM55.3776 37.0981L55.756 37.4249L56.4097 36.6681L56.0313 36.3413L55.3776 37.0981ZM71.458 0.311286L71.458 0.811286L71.458 0.311286ZM55.3883 8.08239L55.7512 7.73834L55.0631 7.01272L54.7003 7.35676L55.3883 8.08239ZM50.0205 12.4834L50.3646 12.8463L50.0205 12.4834ZM44.1101 12.6208L44.4369 12.2424L44.1101 12.6208ZM55.8136 7.02044L56.1757 7.36515L55.8136 7.02044ZM54.7002 7.35676L54.3374 7.70081L55.0255 8.42643L55.3883 8.08238L54.7002 7.35676ZM56.0313 36.3413L55.6529 36.0145L54.9992 36.7713L55.3776 37.0981L56.0313 36.3413ZM56.0222 37.0071L56.3796 36.6574L56.0222 37.0071ZM43.0318 31.0165L42.6878 30.6537L43.0318 31.0165ZM48.9423 30.8792L49.2691 30.5008L49.2691 30.5008L48.9423 30.8792ZM37.2388 36.4795L36.8767 36.1348L37.2388 36.4795ZM38.3521 36.1432L38.7149 35.7992L38.0269 35.0736L37.664 35.4176L38.3521 36.1432ZM37.0211 7.15868L37.3995 7.4855L38.0531 6.7287L37.6747 6.40188L37.0211 7.15868ZM37.0301 6.49286L37.3875 6.14318L37.0301 6.49286ZM37.5933 6.33177L37.2147 6.00516L36.5615 6.76232L36.9401 7.08893L37.5933 6.33177ZM36.7645 6.93232L37.1291 7.2745L37.8135 6.54537L37.4489 6.20319L36.7645 6.93232ZM35.7741 4.64979L35.3908 4.32871L34.7487 5.09529L35.1319 5.41636L35.7741 4.64979ZM31.6664 3.05526L32.1056 3.29435L32.5838 2.41609L32.1446 2.177L31.6664 3.05526ZM28.0965 0.472403L27.6185 0.325452L27.3246 1.28129L27.8026 1.42824L28.0965 0.472403ZM23.6919 0.602935L24.1894 0.65204L24.2876 -0.343126L23.7901 -0.392231L23.6919 0.602935ZM19.4285 -0.395155L18.9308 -0.346723L19.0277 0.648574L19.5254 0.600143L19.4285 -0.395155ZM15.4687 1.40304L15.9472 1.25807L15.6573 0.301026L15.1787 0.446004L15.4687 1.40304ZM11.177 2.10524L10.7362 2.34132L11.2084 3.22283L11.6491 2.98675L11.177 2.10524ZM8.21225 5.28738L8.59857 4.96997L7.96375 4.19731L7.57742 4.51473L8.21225 5.28738ZM4.51473 7.57741L4.19732 7.96374L4.96997 8.59857L5.28738 8.21224L4.51473 7.57741ZM2.98675 11.6491L3.22283 11.2084L2.34132 10.7362L2.10524 11.177L2.98675 11.6491ZM0.446004 15.1787L0.301026 15.6573L1.25807 15.9472L1.40304 15.4687L0.446004 15.1787ZM0.600142 19.5254L0.648574 19.0277L-0.346724 18.9308L-0.395155 19.4285L0.600142 19.5254ZM-0.395155 23.7602L-0.346723 24.2579L0.648574 24.161L0.600143 23.6634L-0.395155 23.7602ZM1.40304 27.72L1.25807 27.2415L0.301026 27.5314L0.446004 28.01L1.40304 27.72ZM2.10524 32.0118L2.34132 32.4525L3.22283 31.9804L2.98675 31.5396L2.10524 32.0118ZM5.28738 34.9765L4.96997 34.5901L4.19731 35.225L4.51473 35.6113L5.28738 34.9765ZM7.57741 38.674L7.96374 38.9914L8.59857 38.2187L8.21224 37.9013L7.57741 38.674ZM11.6491 40.202L11.2084 39.9659L10.7362 40.8474L11.177 41.0835L11.6491 40.202ZM15.1787 42.7427L15.6573 42.8877L15.9472 41.9306L15.4687 41.7857L15.1787 42.7427ZM19.5254 42.5886L19.0277 42.5401L18.9308 43.5354L19.4285 43.5839L19.5254 42.5886ZM23.8283 43.5771L24.3258 43.5272L24.2259 42.5322L23.7284 42.5821L23.8283 43.5771ZM27.9077 41.7278L27.4306 41.8773L27.7295 42.8316L28.2066 42.6821L27.9077 41.7278ZM32.3131 40.919L32.7501 40.6761L32.2643 39.8021L31.8273 40.045L32.3131 40.919ZM35.3279 37.6061L34.9486 37.9318L35.6 38.6906L35.9793 38.3649L35.3279 37.6061ZM37.7635 36.6655L38.1311 36.3266L37.4535 35.5913L37.0858 35.9301L37.7635 36.6655ZM37.4861 35.5787L37.1099 35.908L37.7685 36.6605L38.1448 36.3311L37.4861 35.5787ZM39.6081 34.9523L39.9709 34.6082L39.2828 33.8826L38.92 34.2266L39.6081 34.9523ZM41.4319 31.8447L41.069 32.1887L41.7571 32.9144L42.1199 32.5703L41.4319 31.8447ZM44.5741 30.602L45.0364 30.4116L44.6555 29.487L44.1932 29.6774L44.5741 30.602ZM47.72 29.5955L47.2493 29.4267L46.9118 30.368L47.3824 30.5368L47.72 29.5955ZM50.306 32.7177L50.6844 33.0446L51.338 32.2878L50.9596 31.9609L50.306 32.7177ZM54.3407 34.8812L53.9623 34.5544L53.3087 35.3112L53.6871 35.638L54.3407 34.8812ZM55.459 37.1682L55.8376 37.4948L56.4908 36.7377L56.1123 36.411L55.459 37.1682ZM56.2878 36.5676L55.9232 36.2254L55.2389 36.9546L55.6034 37.2968L56.2878 36.5676ZM57.2782 38.8502L57.6615 39.1712L58.3037 38.4047L57.9204 38.0836L57.2782 38.8502ZM61.3859 40.4447L60.9468 40.2056L60.4686 41.0839L60.9077 41.323L61.3859 40.4447ZM64.9559 43.0276L65.4338 43.1745L65.7277 42.2187L65.2498 42.0718L64.9559 43.0276ZM69.3605 42.8971L68.8629 42.848L68.7647 43.8431L69.2623 43.8922L69.3605 42.8971ZM73.6239 43.8952L74.1215 43.8467L74.0247 42.8514L73.527 42.8999L73.6239 43.8952ZM77.5837 42.097L77.1052 42.2419L77.3951 43.199L77.8736 43.054L77.5837 42.097ZM81.8754 41.3948L82.3162 41.1587L81.844 40.2772L81.4033 40.5132L81.8754 41.3948ZM84.8401 38.2126L84.4538 38.53L85.0886 39.3027L85.475 38.9853L84.8401 38.2126ZM88.5376 35.9226L88.8551 35.5363L88.0824 34.9014L87.765 35.2878L88.5376 35.9226ZM90.0656 31.8509L89.8295 32.2916L90.7111 32.7638L90.9471 32.323L90.0656 31.8509ZM92.6064 28.3213L92.7514 27.8427L91.7943 27.5528L91.6493 28.0313L92.6064 28.3213ZM92.4522 23.9746L92.4038 24.4723L93.3991 24.5692L93.4475 24.0715L92.4522 23.9746ZM93.4475 19.7398L93.3991 19.2421L92.4038 19.339L92.4522 19.8366L93.4475 19.7398ZM91.6493 15.78L91.7943 16.2585L92.7514 15.9685L92.6064 15.49L91.6493 15.78ZM90.9471 11.4882L90.7111 11.0475L89.8295 11.5196L90.0656 11.9604L90.9471 11.4882ZM87.765 8.52353L88.0824 8.90985L88.8551 8.27503L88.5376 7.8887L87.765 8.52353ZM85.475 4.82601L85.0886 4.5086L84.4538 5.28125L84.8401 5.59867L85.475 4.82601ZM81.4033 3.29804L81.844 3.53412L82.3162 2.6526L81.8754 2.41652L81.4033 3.29804ZM77.8736 0.757288L77.3951 0.612311L77.1052 1.56935L77.5837 1.71433L77.8736 0.757288ZM73.527 0.911428L74.0247 0.959859L74.1215 -0.0354383L73.6239 -0.0838698L73.527 0.911428ZM69.224 -0.0771359L68.7266 -0.0271692L68.8265 0.967825L69.324 0.917858L69.224 -0.0771359ZM65.1447 1.77216L65.6218 1.62269L65.3229 0.668419L64.8457 0.817882L65.1447 1.77216ZM60.7393 2.58094L60.3023 2.82385L60.7881 3.69791L61.2251 3.455L60.7393 2.58094ZM57.7245 5.89385L58.1038 5.56815L57.4524 4.80941L57.0731 5.13511L57.7245 5.89385ZM55.2889 6.8345L54.9213 7.17333L55.5989 7.90871L55.9666 7.56989L55.2889 6.8345ZM55.5663 7.92128L55.9425 7.59194L55.2838 6.83951L54.9076 7.16885L55.5663 7.92128ZM53.4443 8.54773L53.0815 8.89177L53.7696 9.6174L54.1324 9.27335L53.4443 8.54773ZM51.6205 11.6553L51.9833 11.3112L51.2952 10.5856L50.9324 10.9297L51.6205 11.6553ZM48.4783 12.898L48.016 13.0884L48.3969 14.013L48.8592 13.8226L48.4783 12.898ZM45.3324 13.9045L45.8031 14.0733L46.1406 13.132L45.6699 12.9632L45.3324 13.9045ZM42.7464 10.7822L42.368 10.4554L41.7143 11.2122L42.0927 11.539L42.7464 10.7822ZM38.7116 8.6188L39.09 8.94563L39.7437 8.18883L39.3653 7.862L38.7116 8.6188ZM37.6747 6.40188C37.6496 6.38021 37.6166 6.35188 37.5933 6.33177L36.9401 7.08893C36.9709 7.1155 36.9921 7.13367 37.0211 7.15868L37.6747 6.40188ZM37.4489 6.20319C37.4271 6.18274 37.4067 6.16283 37.3875 6.14318L36.6727 6.84255C36.7035 6.87398 36.7342 6.90387 36.7645 6.93232L37.4489 6.20319ZM37.3875 6.14318C36.8748 5.61929 36.3364 5.12081 35.7741 4.64979L35.1319 5.41636C35.6689 5.86618 36.1831 6.34223 36.6727 6.84255L37.3875 6.14318ZM32.1446 2.177C30.8664 1.48106 29.5118 0.907583 28.0965 0.472403L27.8026 1.42824C29.1533 1.84355 30.4462 2.39089 31.6664 3.05526L32.1446 2.177ZM23.7901 -0.392231C23.0677 -0.46352 22.3352 -0.5 21.5944 -0.5V0.5C22.3024 0.5 23.0021 0.534862 23.6919 0.602935L23.7901 -0.392231ZM21.5944 -0.5C20.8637 -0.5 20.1412 -0.464517 19.4285 -0.395155L19.5254 0.600143C20.2059 0.533909 20.8961 0.5 21.5944 0.5V-0.5ZM15.1787 0.446004C13.7811 0.869436 12.4422 1.42757 11.177 2.10524L11.6491 2.98675C12.8569 2.33984 14.1349 1.80715 15.4687 1.40304L15.1787 0.446004ZM7.57742 4.51473C6.45945 5.43327 5.43328 6.45944 4.51473 7.57741L5.28738 8.21224C6.16459 7.14459 7.14459 6.16458 8.21225 5.28738L7.57742 4.51473ZM2.10524 11.177C1.42757 12.4422 0.869436 13.7811 0.446004 15.1787L1.40304 15.4687C1.80715 14.1349 2.33984 12.8569 2.98675 11.6491L2.10524 11.177ZM-0.395155 19.4285C-0.464517 20.1412 -0.5 20.8637 -0.5 21.5944L0.5 21.5944C0.5 20.8961 0.533908 20.2059 0.600142 19.5254L-0.395155 19.4285ZM-0.5 21.5944C-0.5 22.325 -0.464517 23.0475 -0.395155 23.7602L0.600143 23.6634C0.533908 22.9828 0.5 22.2926 0.5 21.5944L-0.5 21.5944ZM0.446004 28.01C0.869436 29.4076 1.42757 30.7465 2.10524 32.0118L2.98675 31.5396C2.33984 30.3318 1.80715 29.0538 1.40304 27.72L0.446004 28.01ZM4.51473 35.6113C5.43327 36.7293 6.45944 37.7554 7.57741 38.674L8.21224 37.9013C7.14459 37.0241 6.16458 36.0441 5.28738 34.9765L4.51473 35.6113ZM11.177 41.0835C12.4422 41.7611 13.7811 42.3193 15.1787 42.7427L15.4687 41.7857C14.1349 41.3816 12.8569 40.8489 11.6491 40.202L11.177 41.0835ZM19.4285 43.5839C20.1412 43.6532 20.8637 43.6887 21.5944 43.6887V42.6887C20.8961 42.6887 20.2059 42.6548 19.5254 42.5886L19.4285 43.5839ZM21.5944 43.6887C22.3483 43.6887 23.0935 43.6509 23.8283 43.5771L23.7284 42.5821C23.0268 42.6526 22.3149 42.6887 21.5944 42.6887V43.6887ZM28.2066 42.6821C29.6443 42.2318 31.0187 41.6385 32.3131 40.919L31.8273 40.045C30.5916 40.7318 29.2798 41.298 27.9077 41.7278L28.2066 42.6821ZM35.9793 38.3649C36.5455 37.8788 37.0868 37.3645 37.601 36.8242L36.8767 36.1348C36.3856 36.6508 35.8686 37.1419 35.3279 37.6061L35.9793 38.3649ZM37.601 36.8242C37.6513 36.7714 37.7054 36.7189 37.7635 36.6655L37.0858 35.9301C37.0163 35.9941 36.9458 36.0621 36.8767 36.1348L37.601 36.8242ZM38.1448 36.3311C38.2126 36.2718 38.2826 36.2092 38.3521 36.1432L37.664 35.4176C37.6079 35.4708 37.5488 35.5238 37.4861 35.5787L38.1448 36.3311ZM38.3521 36.1432L39.6081 34.9523L38.92 34.2266L37.664 35.4176L38.3521 36.1432ZM42.1199 32.5703L43.3759 31.3794L42.6878 30.6537L41.4319 31.8447L42.1199 32.5703ZM43.3759 31.3794C43.7346 31.0392 44.1416 30.7802 44.5741 30.602L44.1932 29.6774C43.6488 29.9016 43.1372 30.2275 42.6878 30.6537L43.3759 31.3794ZM47.3824 30.5368C47.8227 30.6947 48.2414 30.9345 48.6154 31.2576L49.2691 30.5008C48.8003 30.096 48.2742 29.7942 47.72 29.5955L47.3824 30.5368ZM48.6154 31.2576L50.306 32.7177L50.9596 31.9609L49.2691 30.5008L48.6154 31.2576ZM53.6871 35.638L55.3776 37.0981L56.0313 36.3413L54.3407 34.8812L53.6871 35.638ZM55.3776 37.0981C55.4027 37.1198 55.4358 37.1481 55.459 37.1682L56.1123 36.411C56.0815 36.3845 56.0603 36.3663 56.0313 36.3413L55.3776 37.0981ZM55.6034 37.2968C55.6252 37.3172 55.6456 37.3371 55.6649 37.3568L56.3796 36.6574C56.3489 36.626 56.3181 36.5961 56.2878 36.5676L55.6034 37.2968ZM55.6649 37.3568C56.1775 37.8806 56.7159 38.3791 57.2782 38.8502L57.9204 38.0836C57.3834 37.6338 56.8692 37.1577 56.3796 36.6574L55.6649 37.3568ZM60.9077 41.323C62.1859 42.0189 63.5406 42.5924 64.9559 43.0276L65.2498 42.0718C63.8991 41.6564 62.6061 41.1091 61.3859 40.4447L60.9077 41.323ZM69.2623 43.8922C69.9847 43.9635 70.7172 44 71.458 44V43C70.75 43 70.0503 42.9651 69.3605 42.8971L69.2623 43.8922ZM71.458 44C72.1887 44 72.9112 43.9645 73.6239 43.8952L73.527 42.8999C72.8465 42.9661 72.1563 43 71.458 43V44ZM77.8736 43.054C79.2712 42.6306 80.6102 42.0724 81.8754 41.3948L81.4033 40.5132C80.1955 41.1602 78.9175 41.6929 77.5837 42.097L77.8736 43.054ZM85.475 38.9853C86.5929 38.0667 87.6191 37.0406 88.5376 35.9226L87.765 35.2878C86.8878 36.3554 85.9078 37.3354 84.8401 38.2126L85.475 38.9853ZM90.9471 32.323C91.6248 31.0578 92.1829 29.7189 92.6064 28.3213L91.6493 28.0313C91.2452 29.3651 90.7125 30.6431 90.0656 31.8509L90.9471 32.323ZM93.4475 24.0715C93.5169 23.3588 93.5524 22.6363 93.5524 21.9056H92.5524C92.5524 22.6039 92.5185 23.2941 92.4522 23.9746L93.4475 24.0715ZM93.5524 21.9056C93.5524 21.175 93.5169 20.4525 93.4475 19.7398L92.4522 19.8366C92.5185 20.5172 92.5524 21.2074 92.5524 21.9056H93.5524ZM92.6064 15.49C92.1829 14.0924 91.6248 12.7535 90.9471 11.4882L90.0656 11.9604C90.7125 13.1682 91.2452 14.4462 91.6493 15.78L92.6064 15.49ZM88.5376 7.8887C87.6191 6.77073 86.5929 5.74456 85.475 4.82601L84.8401 5.59867C85.9078 6.47587 86.8878 7.45587 87.765 8.52353L88.5376 7.8887ZM81.8754 2.41652C80.6102 1.73885 79.2712 1.18072 77.8736 0.757288L77.5837 1.71433C78.9175 2.11843 80.1955 2.65113 81.4033 3.29804L81.8754 2.41652ZM73.6239 -0.0838698C72.9112 -0.153232 72.1887 -0.188714 71.458 -0.188714L71.458 0.811286C72.1563 0.811286 72.8464 0.845194 73.527 0.911428L73.6239 -0.0838698ZM71.458 -0.188714C70.7041 -0.188714 69.9588 -0.150934 69.224 -0.0771359L69.324 0.917858C70.0256 0.847389 70.7375 0.811286 71.458 0.811286L71.458 -0.188714ZM64.8457 0.817882C63.4081 1.26823 62.0337 1.86148 60.7393 2.58094L61.2251 3.455C62.4608 2.76817 63.7726 2.20195 65.1447 1.77216L64.8457 0.817882ZM57.0731 5.13511C56.5069 5.6212 55.9656 6.13547 55.4514 6.67573L56.1757 7.36515C56.6668 6.84919 57.1838 6.35806 57.7245 5.89385L57.0731 5.13511ZM55.4514 6.67573C55.4011 6.72861 55.347 6.78103 55.2889 6.8345L55.9666 7.56989C56.0361 7.50586 56.1066 7.43783 56.1757 7.36515L55.4514 6.67573ZM54.9076 7.16885C54.8398 7.2282 54.7698 7.29083 54.7002 7.35676L55.3883 8.08238C55.4445 8.02917 55.5036 7.97618 55.5663 7.92128L54.9076 7.16885ZM54.7003 7.35676L53.4443 8.54773L54.1324 9.27335L55.3883 8.08239L54.7003 7.35676ZM50.9324 10.9297L49.6765 12.1206L50.3646 12.8463L51.6205 11.6553L50.9324 10.9297ZM49.6765 12.1206C49.3178 12.4608 48.9108 12.7198 48.4783 12.898L48.8592 13.8226C49.4035 13.5983 49.9151 13.2724 50.3646 12.8463L49.6765 12.1206ZM45.6699 12.9632C45.2296 12.8053 44.811 12.5655 44.4369 12.2424L43.7833 12.9992C44.252 13.404 44.7782 13.7058 45.3324 13.9045L45.6699 12.9632ZM44.4369 12.2424L42.7464 10.7822L42.0927 11.539L43.7833 12.9992L44.4369 12.2424ZM39.3653 7.862L37.6747 6.40188L37.0211 7.15868L38.7116 8.6188L39.3653 7.862ZM38.0016 6.02348L37.2448 5.36983L35.9375 6.88343L36.6943 7.53708L38.0016 6.02348ZM0 21.5944L1 21.5944L0 21.5944ZM37.32 35.0548L36.5944 35.7429L37.9705 37.1941L38.6962 36.506L37.32 35.0548ZM55.0508 37.4765L55.8076 38.1302L57.1149 36.6166L56.3581 35.9629L55.0508 37.4765ZM71.458 0.311286L71.458 1.31129L71.458 0.311286ZM55.7324 8.4452L56.458 7.75711L55.0818 6.30586L54.3562 6.99395L55.7324 8.4452ZM50.0205 12.4834L50.7086 13.2091L50.0205 12.4834ZM44.1101 12.6208L44.7638 11.864L44.1101 12.6208ZM55.8136 7.02044L56.5379 7.70986L55.8136 7.02044ZM54.3562 6.99395L53.6306 7.68205L55.0068 9.13329L55.7324 8.44519L54.3562 6.99395ZM56.3581 35.9629L55.6013 35.3093L54.294 36.8229L55.0508 37.4765L56.3581 35.9629ZM56.0222 37.0071L56.737 36.3077L56.0222 37.0071ZM43.0318 31.0165L42.3438 30.2909L43.0318 31.0165ZM48.9423 30.8792L49.5959 30.1224L49.5959 30.1224L48.9423 30.8792ZM37.2388 36.4795L36.5145 35.7901L37.2388 36.4795ZM38.6962 36.5061L39.4218 35.818L38.0456 34.3667L37.32 35.0548L38.6962 36.5061ZM36.6943 7.53708L37.4511 8.19073L38.7584 6.67713L38.0016 6.02348L36.6943 7.53708ZM37.0301 6.49286L37.7448 5.79349L37.0301 6.49286ZM37.9199 5.95319L37.1628 5.29996L35.8563 6.81429L36.6135 7.46752L37.9199 5.95319ZM36.4224 7.29688L37.1515 7.98126L38.5202 6.52299L37.7911 5.83862L36.4224 7.29688ZM36.0952 4.26651L35.3286 3.62435L34.0443 5.15749L34.8109 5.79965L36.0952 4.26651ZM31.4274 3.49439L32.3056 3.97257L33.262 2.21605L32.3837 1.73787L31.4274 3.49439ZM28.2434 -0.00551514L27.2876 -0.299416L26.6998 1.61226L27.6556 1.90616L28.2434 -0.00551514ZM23.6428 1.10052L24.6379 1.19873L24.8343 -0.791605L23.8392 -0.889813L23.6428 1.10052ZM19.3801 -0.892804L18.3848 -0.795941L18.5785 1.19465L19.5738 1.09779L19.3801 -0.892804ZM15.6137 1.88156L16.5707 1.59161L15.9908 -0.322472L15.0338 -0.0325159L15.6137 1.88156ZM10.9409 1.66448L10.0594 2.13664L11.0037 3.89967L11.8852 3.42751L10.9409 1.66448ZM8.52966 5.67371L9.30231 5.03888L8.03266 3.49357L7.26001 4.1284L8.52966 5.67371ZM4.1284 7.26L3.49357 8.03266L5.03888 9.30231L5.67371 8.52966L4.1284 7.26ZM3.42751 11.8852L3.89967 11.0037L2.13664 10.0594L1.66448 10.9409L3.42751 11.8852ZM-0.0325157 15.0338L-0.322471 15.9908L1.59161 16.5707L1.88156 15.6137L-0.0325157 15.0338ZM1.09779 19.5738L1.19465 18.5785L-0.795941 18.3848L-0.892804 19.3801L1.09779 19.5738ZM-0.892804 23.8087L-0.795941 24.804L1.19465 24.6102L1.09779 23.6149L-0.892804 23.8087ZM1.88156 27.575L1.59161 26.618L-0.322472 27.1979L-0.0325159 28.1549L1.88156 27.575ZM1.66448 32.2478L2.13664 33.1293L3.89967 32.185L3.42751 31.3035L1.66448 32.2478ZM5.67371 34.6591L5.03888 33.8864L3.49357 35.1561L4.1284 35.9287L5.67371 34.6591ZM7.26 39.0603L8.03266 39.6951L9.30231 38.1498L8.52966 37.515L7.26 39.0603ZM11.8852 39.7612L11.0037 39.289L10.0594 41.0521L10.9409 41.5242L11.8852 39.7612ZM15.0338 43.2212L15.9908 43.5112L16.5707 41.5971L15.6137 41.3071L15.0338 43.2212ZM19.5738 42.0909L18.5785 41.9941L18.3848 43.9847L19.3801 44.0815L19.5738 42.0909ZM23.8783 44.0746L24.8733 43.9747L24.6734 41.9847L23.6784 42.0846L23.8783 44.0746ZM27.7583 41.2507L26.804 41.5496L27.4018 43.4582L28.3561 43.1593L27.7583 41.2507ZM32.556 41.3561L33.43 40.8703L32.4584 39.1221L31.5843 39.608L32.556 41.3561ZM35.0022 37.2268L34.2435 37.8782L35.5463 39.3956L36.305 38.7442L35.0022 37.2268ZM38.1023 37.0332L38.8377 36.3555L37.4824 34.8847L36.747 35.5624L38.1023 37.0332ZM37.1568 35.2025L36.4043 35.8612L37.7217 37.366L38.4741 36.7074L37.1568 35.2025ZM39.9521 35.3151L40.6777 34.627L39.3016 33.1757L38.5759 33.8638L39.9521 35.3151ZM41.0878 31.4819L40.3622 32.17L41.7384 33.6212L42.464 32.9331L41.0878 31.4819ZM44.7645 31.0643L45.6892 30.6835L44.9274 28.8342L44.0028 29.2151L44.7645 31.0643ZM47.8887 29.1248L46.9474 28.7873L46.2724 30.6699L47.2137 31.0074L47.8887 29.1248ZM49.9792 33.0961L50.736 33.7498L52.0433 32.2362L51.2865 31.5825L49.9792 33.0961ZM54.6676 34.5028L53.9108 33.8491L52.6035 35.3627L53.3603 36.0164L54.6676 34.5028ZM55.1324 37.5468L55.8896 38.2L57.196 36.6857L56.4389 36.0325L55.1324 37.5468ZM56.63 36.2031L55.9009 35.5187L54.5321 36.9769L55.2612 37.6613L56.63 36.2031ZM56.9571 39.2334L57.7237 39.8756L59.008 38.3425L58.2415 37.7003L56.9571 39.2334ZM61.625 40.0056L60.7467 39.5274L59.7903 41.2839L60.6686 41.7621L61.625 40.0056ZM64.8089 43.5055L65.7648 43.7994L66.3526 41.8877L65.3967 41.5938L64.8089 43.5055ZM69.4096 42.3995L68.4145 42.3013L68.218 44.2916L69.2132 44.3898L69.4096 42.3995ZM73.6723 44.3928L74.6676 44.2959L74.4739 42.3053L73.4786 42.4022L73.6723 44.3928ZM77.4387 41.6184L76.4817 41.9084L77.0616 43.8225L78.0186 43.5325L77.4387 41.6184ZM82.1115 41.8355L82.993 41.3634L82.0487 39.6003L81.1672 40.0725L82.1115 41.8355ZM84.5227 37.8263L83.7501 38.4611L85.0197 40.0064L85.7924 39.3716L84.5227 37.8263ZM88.924 36.24L89.5588 35.4673L88.0135 34.1977L87.3787 34.9703L88.924 36.24ZM89.6249 31.6148L89.1527 32.4963L90.9157 33.4406L91.3879 32.5591L89.6249 31.6148ZM93.0849 28.4662L93.3748 27.5092L91.4608 26.9293L91.1708 27.8863L93.0849 28.4662ZM91.9546 23.9262L91.8577 24.9215L93.8483 25.1152L93.9452 24.1199L91.9546 23.9262ZM93.9452 19.6913L93.8483 18.696L91.8577 18.8898L91.9546 19.8851L93.9452 19.6913ZM91.1708 15.925L91.4608 16.882L93.3748 16.3021L93.0849 15.345L91.1708 15.925ZM91.3879 11.2522L90.9157 10.3707L89.1527 11.315L89.6249 12.1965L91.3879 11.2522ZM87.3787 8.84094L88.0135 9.6136L89.5588 8.34394L88.924 7.57129L87.3787 8.84094ZM85.7924 4.43968L85.0197 3.80486L83.7501 5.35017L84.5227 5.98499L85.7924 4.43968ZM81.1672 3.7388L82.0487 4.21095L82.993 2.44792L82.1115 1.97576L81.1672 3.7388ZM78.0186 0.278768L77.0616 -0.0111871L76.4817 1.90289L77.4387 2.19285L78.0186 0.278768ZM73.4786 1.40908L74.4739 1.50594L74.6676 -0.484656L73.6723 -0.581519L73.4786 1.40908ZM69.1741 -0.574633L68.1791 -0.4747L68.379 1.51529L69.3739 1.41536L69.1741 -0.574633ZM65.2941 2.2493L66.2484 1.95037L65.6506 0.0418173L64.6963 0.340744L65.2941 2.2493ZM60.4964 2.14391L59.6224 2.62973L60.594 4.37785L61.4681 3.89202L60.4964 2.14391ZM58.0502 6.27322L58.8089 5.62182L57.5061 4.10435L56.7474 4.75574L58.0502 6.27322ZM54.9501 6.46681L54.2147 7.14445L55.57 8.61523L56.3054 7.93758L54.9501 6.46681ZM55.8956 8.29749L56.6481 7.63882L55.3307 6.13396L54.5783 6.79263L55.8956 8.29749ZM53.1003 8.18491L52.3746 8.873L53.7508 10.3243L54.4764 9.63617L53.1003 8.18491ZM51.9646 12.0181L52.6902 11.33L51.314 9.87876L50.5884 10.5669L51.9646 12.0181ZM48.2879 12.4357L47.3632 12.8165L48.125 14.6658L49.0496 14.2849L48.2879 12.4357ZM45.1637 14.3752L46.105 14.7127L46.78 12.8301L45.8387 12.4926L45.1637 14.3752ZM43.0732 10.4038L42.3164 9.7502L41.0091 11.2638L41.7659 11.9174L43.0732 10.4038ZM38.3848 8.9972L39.1416 9.65085L40.4489 8.13725L39.6921 7.4836L38.3848 8.9972ZM38.0016 6.02348C37.9784 6.00348 37.9395 5.97007 37.9199 5.95319L36.6135 7.46752C36.648 7.49731 36.6634 7.5104 36.6943 7.53708L38.0016 6.02348ZM37.7911 5.83862C37.7736 5.82217 37.7583 5.80726 37.7448 5.79349L36.3153 7.19224C36.3518 7.22955 36.3878 7.26444 36.4224 7.29688L37.7911 5.83862ZM37.7448 5.79349C37.2207 5.25782 36.6701 4.74813 36.0952 4.26651L34.8109 5.79965C35.3352 6.23886 35.8373 6.7037 36.3153 7.19224L37.7448 5.79349ZM32.3837 1.73787C31.0765 1.02614 29.691 0.439598 28.2434 -0.00551514L27.6556 1.90616C28.974 2.31154 30.2362 2.84581 31.4274 3.49439L32.3837 1.73787ZM23.8392 -0.889813C23.1005 -0.962711 22.3516 -1 21.5944 -1V1C22.2859 1 22.9692 1.03405 23.6428 1.10052L23.8392 -0.889813ZM21.5944 -1C20.8475 -1 20.1088 -0.96373 19.3801 -0.892804L19.5738 1.09779C20.2383 1.03312 20.9123 1 21.5944 1V-1ZM15.0338 -0.0325159C13.6043 0.40058 12.2348 0.971431 10.9409 1.66448L11.8852 3.42751C13.0643 2.79598 14.3118 2.276 15.6137 1.88156L15.0338 -0.0325159ZM7.26001 4.1284C6.11687 5.06762 5.06762 6.11687 4.1284 7.26L5.67371 8.52966C6.53024 7.48716 7.48717 6.53024 8.52966 5.67371L7.26001 4.1284ZM1.66448 10.9409C0.971431 12.2348 0.40058 13.6043 -0.0325157 15.0338L1.88156 15.6137C2.276 14.3118 2.79598 13.0643 3.42751 11.8852L1.66448 10.9409ZM-0.892804 19.3801C-0.96373 20.1088 -1 20.8475 -1 21.5944L1 21.5944C1 20.9123 1.03312 20.2383 1.09779 19.5738L-0.892804 19.3801ZM-1 21.5944C-1 22.3412 -0.96373 23.0799 -0.892804 23.8087L1.09779 23.6149C1.03312 22.9504 1 22.2764 1 21.5944L-1 21.5944ZM-0.0325159 28.1549C0.40058 29.5844 0.971431 30.9539 1.66448 32.2478L3.42751 31.3035C2.79598 30.1244 2.276 28.8769 1.88156 27.575L-0.0325159 28.1549ZM4.1284 35.9287C5.06762 37.0718 6.11687 38.1211 7.26 39.0603L8.52966 37.515C7.48716 36.6585 6.53024 35.7015 5.67371 34.6591L4.1284 35.9287ZM10.9409 41.5242C12.2348 42.2173 13.6043 42.7881 15.0338 43.2212L15.6137 41.3071C14.3118 40.9127 13.0643 40.3927 11.8852 39.7612L10.9409 41.5242ZM19.3801 44.0815C20.1088 44.1524 20.8475 44.1887 21.5944 44.1887V42.1887C20.9123 42.1887 20.2383 42.1556 19.5738 42.0909L19.3801 44.0815ZM21.5944 44.1887C22.365 44.1887 23.1269 44.1501 23.8783 44.0746L23.6784 42.0846C22.9934 42.1534 22.2981 42.1887 21.5944 42.1887V44.1887ZM28.3561 43.1593C29.8266 42.6986 31.2322 42.0919 32.556 41.3561L31.5843 39.608C30.378 40.2785 29.0975 40.8312 27.7583 41.2507L28.3561 43.1593ZM36.305 38.7442C36.884 38.2472 37.4374 37.7214 37.9632 37.1689L36.5145 35.7901C36.035 36.2939 35.5302 36.7735 35.0022 37.2268L36.305 38.7442ZM37.9632 37.1689C38.0041 37.126 38.05 37.0814 38.1023 37.0332L36.747 35.5624C36.6718 35.6317 36.5931 35.7075 36.5145 35.7901L37.9632 37.1689ZM38.4741 36.7074C38.5444 36.6458 38.6199 36.5783 38.6962 36.5061L37.32 35.0548C37.2706 35.1016 37.2169 35.1498 37.1568 35.2025L38.4741 36.7074ZM38.6962 36.506L39.9521 35.3151L38.5759 33.8638L37.32 35.0548L38.6962 36.506ZM42.464 32.9331L43.7199 31.7422L42.3438 30.2909L41.0878 31.4819L42.464 32.9331ZM43.7199 31.7422C44.0332 31.4451 44.388 31.2194 44.7645 31.0643L44.0028 29.2151C43.4025 29.4624 42.8386 29.8217 42.3438 30.2909L43.7199 31.7422ZM47.2137 31.0074C47.597 31.1449 47.9619 31.3538 48.2886 31.636L49.5959 30.1224C49.0798 29.6767 48.4999 29.3439 47.8887 29.1248L47.2137 31.0074ZM48.2886 31.636L49.9792 33.0961L51.2865 31.5825L49.5959 30.1224L48.2886 31.636ZM53.3603 36.0164L55.0508 37.4765L56.3581 35.9629L54.6676 34.5028L53.3603 36.0164ZM55.0508 37.4765C55.0739 37.4965 55.1129 37.5299 55.1324 37.5468L56.4389 36.0325C56.4043 36.0026 56.389 35.9896 56.3581 35.9629L55.0508 37.4765ZM55.2612 37.6613C55.2787 37.6778 55.294 37.6927 55.3075 37.7064L56.737 36.3077C56.7005 36.2704 56.6645 36.2355 56.63 36.2031L55.2612 37.6613ZM55.3075 37.7064C55.8316 38.2421 56.3822 38.7518 56.9571 39.2334L58.2415 37.7003C57.7172 37.2611 57.215 36.7962 56.737 36.3077L55.3075 37.7064ZM60.6686 41.7621C61.9758 42.4738 63.3613 43.0604 64.8089 43.5055L65.3967 41.5938C64.0783 41.1884 62.8162 40.6542 61.625 40.0056L60.6686 41.7621ZM69.2132 44.3898C69.9519 44.4627 70.7008 44.5 71.458 44.5V42.5C70.7664 42.5 70.0831 42.4659 69.4096 42.3995L69.2132 44.3898ZM71.458 44.5C72.2049 44.5 72.9435 44.4637 73.6723 44.3928L73.4786 42.4022C72.8141 42.4669 72.1401 42.5 71.458 42.5V44.5ZM78.0186 43.5325C79.4481 43.0994 80.8176 42.5286 82.1115 41.8355L81.1672 40.0725C79.9881 40.704 78.7406 41.224 77.4387 41.6184L78.0186 43.5325ZM85.7924 39.3716C86.9355 38.4324 87.9848 37.3831 88.924 36.24L87.3787 34.9703C86.5221 36.0128 85.5652 36.9698 84.5227 37.8263L85.7924 39.3716ZM91.3879 32.5591C92.0809 31.2652 92.6518 29.8957 93.0849 28.4662L91.1708 27.8863C90.7764 29.1882 90.2564 30.4357 89.6249 31.6148L91.3879 32.5591ZM93.9452 24.1199C94.0161 23.3912 94.0524 22.6525 94.0524 21.9056H92.0524C92.0524 22.5877 92.0193 23.2617 91.9546 23.9262L93.9452 24.1199ZM94.0524 21.9056C94.0524 21.1588 94.0161 20.4201 93.9452 19.6913L91.9546 19.8851C92.0193 20.5496 92.0524 21.2236 92.0524 21.9056H94.0524ZM93.0849 15.345C92.6518 13.9156 92.0809 12.5461 91.3879 11.2522L89.6249 12.1965C90.2564 13.3756 90.7764 14.6231 91.1708 15.925L93.0849 15.345ZM88.924 7.57129C87.9848 6.42815 86.9355 5.3789 85.7924 4.43968L84.5227 5.98499C85.5652 6.84152 86.5221 7.79845 87.3787 8.84094L88.924 7.57129ZM82.1115 1.97576C80.8176 1.28271 79.4481 0.711864 78.0186 0.278768L77.4387 2.19285C78.7406 2.58729 79.9881 3.10726 81.1672 3.7388L82.1115 1.97576ZM73.6723 -0.581519C72.9435 -0.652445 72.2049 -0.688714 71.458 -0.688714L71.458 1.31129C72.1401 1.31129 72.8141 1.34441 73.4786 1.40908L73.6723 -0.581519ZM71.458 -0.688714C70.6874 -0.688714 69.9254 -0.650096 69.1741 -0.574633L69.3739 1.41536C70.059 1.34655 70.7542 1.31129 71.458 1.31129L71.458 -0.688714ZM64.6963 0.340744C63.2258 0.801367 61.8202 1.40813 60.4964 2.14391L61.4681 3.89202C62.6744 3.22151 63.9549 2.66881 65.2941 2.2493L64.6963 0.340744ZM56.7474 4.75574C56.1684 5.25277 55.615 5.7786 55.0892 6.33102L56.5379 7.70986C57.0174 7.20605 57.5222 6.72649 58.0502 6.27322L56.7474 4.75574ZM55.0892 6.33102C55.0483 6.374 55.0024 6.41861 54.9501 6.46681L56.3054 7.93758C56.3806 7.86828 56.4593 7.79244 56.5379 7.70986L55.0892 6.33102ZM54.5783 6.79263C54.5079 6.85421 54.4324 6.92166 54.3562 6.99395L55.7324 8.44519C55.7818 8.39834 55.8354 8.35017 55.8956 8.29749L54.5783 6.79263ZM54.3562 6.99395L53.1003 8.18491L54.4764 9.63617L55.7324 8.4452L54.3562 6.99395ZM50.5884 10.5669L49.3324 11.7578L50.7086 13.2091L51.9646 12.0181L50.5884 10.5669ZM49.3324 11.7578C49.0192 12.0549 48.6644 12.2805 48.2879 12.4357L49.0496 14.2849C49.6499 14.0376 50.2138 13.6783 50.7086 13.2091L49.3324 11.7578ZM45.8387 12.4926C45.4554 12.3551 45.0905 12.1462 44.7638 11.864L43.4565 13.3776C43.9725 13.8233 44.5525 14.156 45.1637 14.3752L45.8387 12.4926ZM44.7638 11.864L43.0732 10.4038L41.7659 11.9174L43.4565 13.3776L44.7638 11.864ZM39.6921 7.4836L38.0016 6.02348L36.6943 7.53708L38.3848 8.9972L39.6921 7.4836Z" fill="#9A9C9E" mask="url(#path-1-inside-1_183_1474)"/>
</svg>
