<svg width="24" height="24" viewBox="0 0 24 24" fill="none" xmlns="http://www.w3.org/2000/svg">
<path d="M12 4L12 6H18V12H20L20 6C20 5.46957 19.7893 4.96086 19.4142 4.58579C19.0391 4.21071 18.5304 4 18 4H12ZM4 12V18C4 18.5304 4.21071 19.0391 4.58579 19.4142C4.96086 19.7893 5.46957 20 6 20H12V18H6L6 12H4Z" fill="url(#paint0_linear_686_2304)"/>
<path d="M20.12 21.54L21.54 20.12L16.4 15H19V13L13 13V19H15V16.41" fill="url(#paint1_linear_686_2304)"/>
<path d="M3.42 2L2 3.42L7.14 8.54H4.54V10.54L10.54 10.54V4.54H8.54V7.13" fill="url(#paint2_linear_686_2304)"/>
<defs>
<linearGradient id="paint0_linear_686_2304" x1="12" y1="4" x2="12" y2="20" gradientUnits="userSpaceOnUse">
<stop stop-color="#9CFFBF"/>
<stop offset="1" stop-color="#ADD8FF"/>
</linearGradient>
<linearGradient id="paint1_linear_686_2304" x1="17.27" y1="21.54" x2="17.27" y2="13" gradientUnits="userSpaceOnUse">
<stop stop-color="#9CFFBF"/>
<stop offset="1" stop-color="#ADD8FF"/>
</linearGradient>
<linearGradient id="paint2_linear_686_2304" x1="6.27" y1="2" x2="6.27" y2="10.54" gradientUnits="userSpaceOnUse">
<stop stop-color="#9CFFBF"/>
<stop offset="1" stop-color="#ADD8FF"/>
</linearGradient>
</defs>
</svg>
