<svg width="20" height="20" viewBox="0 0 20 20" fill="none" xmlns="http://www.w3.org/2000/svg">
<path d="M2 2L16.8828 15.9565C16.8828 15.9565 17.174 16.3535 16.8034 16.7417C16.4417 17.1299 15.9653 16.7946 15.9653 16.7946L2 2ZM6.41986 3.40271L17.9768 14.0333C17.9768 14.0333 18.2591 14.4215 17.8974 14.792C17.5268 15.2066 17.0505 14.8714 17.0505 14.8714L6.41986 3.40271ZM3.31449 6.41104L14.8714 17.024C14.8714 17.024 15.1537 17.4122 14.792 17.8003C14.4215 18.1973 13.9451 17.8797 13.9451 17.8797L3.31449 6.41104ZM10.1604 4.61133L18.2326 12.0307C18.2326 12.0307 18.4267 12.3042 18.1709 12.5865C17.9238 12.8511 17.5886 12.613 17.5886 12.613L10.1604 4.61133ZM4.33785 9.86047L12.41 17.2886C12.41 17.2886 12.6041 17.5621 12.3571 17.8356C12.1013 18.1091 11.766 17.8797 11.766 17.8797L4.33785 9.86047ZM13.9804 6.34046L17.6592 9.71049C17.6592 9.71049 17.7562 9.834 17.6151 9.96633C17.5092 10.0898 17.3416 9.98397 17.3416 9.98397L13.9804 6.34046ZM6.19931 13.5569L9.88693 16.9181C9.88693 16.9181 9.98397 17.0505 9.85164 17.174C9.72813 17.3063 9.56051 17.1916 9.56051 17.1916L6.19931 13.5569Z" fill="white"/>
</svg>
