<svg width="24" height="24" viewBox="0 0 24 24" fill="none" xmlns="http://www.w3.org/2000/svg">
<path d="M12 4L12 6H18V12H20L20 6C20 5.46957 19.7893 4.96086 19.4142 4.58579C19.0391 4.21071 18.5304 4 18 4H12ZM4 12V18C4 18.5304 4.21071 19.0391 4.58579 19.4142C4.96086 19.7893 5.46957 20 6 20H12V18H6L6 12H4Z" fill="url(#paint0_linear_768_1778)"/>
<path d="M13.42 12L12 13.42L17.14 18.54L14.54 18.54L14.54 20.54L20.54 20.54L20.54 14.54L18.54 14.54L18.54 17.13" fill="url(#paint1_linear_768_1778)"/>
<path d="M10.1191 11.54L11.5391 10.12L6.39906 5.00004H8.99906V3.00004L2.99906 3.00004V9.00004H4.99906V6.41004" fill="url(#paint2_linear_768_1778)"/>
<defs>
<linearGradient id="paint0_linear_768_1778" x1="12" y1="4" x2="12" y2="20" gradientUnits="userSpaceOnUse">
<stop stop-color="#9CFFBF"/>
<stop offset="1" stop-color="#ADD8FF"/>
</linearGradient>
<linearGradient id="paint1_linear_768_1778" x1="16.27" y1="12" x2="16.27" y2="20.54" gradientUnits="userSpaceOnUse">
<stop stop-color="#9CFFBF"/>
<stop offset="1" stop-color="#ADD8FF"/>
</linearGradient>
<linearGradient id="paint2_linear_768_1778" x1="7.26906" y1="11.54" x2="7.26906" y2="3.00004" gradientUnits="userSpaceOnUse">
<stop stop-color="#9CFFBF"/>
<stop offset="1" stop-color="#ADD8FF"/>
</linearGradient>
</defs>
</svg>
