<svg width="24" height="24" viewBox="0 0 24 24" fill="none" xmlns="http://www.w3.org/2000/svg">
<path d="M12 14.4C12.648 14.4 13.2 14.16 13.688 13.688C14.16 13.2 14.4 12.648 14.4 12C14.4 11.352 14.16 10.8 13.688 10.312C13.2 9.84 12.648 9.6 12 9.6C11.352 9.6 10.8 9.84 10.312 10.312C9.84 10.8 9.6 11.352 9.6 12C9.6 12.648 9.84 13.2 10.312 13.688C10.8 14.16 11.352 14.4 12 14.4ZM12 4C14.2 4 16.08 4.8 17.64 6.36C19.2 7.92 20 9.8 20 12V13.16C20 13.96 19.72 14.64 19.2 15.2C18.64 15.736 18 16 17.2 16C16.24 16 15.448 15.6 14.848 14.8C14.048 15.6 13.104 16 12 16C10.904 16 9.96 15.6 9.168 14.832C8.4 14.04 8 13.104 8 12C8 10.904 8.4 9.96 9.168 9.168C9.96 8.4 10.904 8 12 8C13.104 8 14.04 8.4 14.832 9.168C15.6 9.96 16 10.904 16 12V13.16C16 13.488 16.128 13.776 16.368 14.024C16.608 14.272 16.888 14.4 17.2 14.4C17.536 14.4 17.816 14.272 18.056 14.024C18.296 13.776 18.4 13.488 18.4 13.16V12C18.4 10.248 17.784 8.744 16.52 7.48C15.256 6.216 13.752 5.6 12 5.6C10.248 5.6 8.744 6.216 7.48 7.48C6.216 8.744 5.6 10.248 5.6 12C5.6 13.752 6.216 15.256 7.48 16.52C8.744 17.784 10.248 18.4 12 18.4H16V20H12C9.8 20 7.92 19.2 6.36 17.64C4.8 16.08 4 14.2 4 12C4 9.8 4.8 7.92 6.36 6.36C7.92 4.8 9.8 4 12 4Z" fill="#9A9C9E"/>
</svg>
