<svg width="24" height="24" viewBox="0 0 24 24" fill="none" xmlns="http://www.w3.org/2000/svg">
<path fill-rule="evenodd" clip-rule="evenodd" d="M16.0406 17.6568L12 13.6162L7.95939 17.6568C7.51492 18.1013 6.78761 18.1013 6.34315 17.6568C5.89868 17.2124 5.89868 16.4851 6.34315 16.0406L10.3838 12L6.34315 7.95938C5.89868 7.51491 5.89868 6.7876 6.34315 6.34313C6.78761 5.89867 7.51492 5.89867 7.95939 6.34313L12 10.3837L16.0406 6.34313C16.4851 5.89867 17.2124 5.89867 17.6569 6.34313C18.1013 6.7876 18.1013 7.51491 17.6569 7.95938L13.6162 12L17.6569 16.0406C18.1013 16.4851 18.1013 17.2124 17.6569 17.6568C17.2124 18.1013 16.4851 18.1013 16.0406 17.6568Z" fill="#3E3F40"/>
</svg>
