<svg width="24" height="24" viewBox="0 0 24 24" fill="none" xmlns="http://www.w3.org/2000/svg">
<path fill-rule="evenodd" clip-rule="evenodd" d="M16.0406 17.6571L12 13.6165L7.95939 17.6571C7.51492 18.1016 6.78761 18.1016 6.34315 17.6571C5.89868 17.2126 5.89868 16.4853 6.34315 16.0408L10.3838 12.0002L6.34315 7.95962C5.89868 7.51515 5.89868 6.78784 6.34315 6.34338C6.78761 5.89891 7.51492 5.89891 7.95939 6.34338L12 10.384L16.0406 6.34338C16.4851 5.89891 17.2124 5.89891 17.6569 6.34338C18.1013 6.78784 18.1013 7.51515 17.6569 7.95962L13.6162 12.0002L17.6569 16.0408C18.1013 16.4853 18.1013 17.2126 17.6569 17.6571C17.2124 18.1016 16.4851 18.1016 16.0406 17.6571Z" fill="white"/>
</svg>
